# xmcd CD database file
# Copyright (C) 1996 Ti Kan
#
# Track frame offsets:
# 	150
# 	11477
# 	22535
# 	32435
# 	46170
# 	56870
# 	67727
# 	79557
# 	90385
# 	103322
# 	113207
# 	123845
# 	135370
# 	146935
# 	157477
# 	169620
# 	178372
# 	188370
# 	199790
# 	210127
#
# Disc length: 2947 seconds
#
# Revision: 1
# Processed by: cddbd v1.4b41PL1 Copyright (c) Steve Scherf et al.
# Submitted via: DiscPlay 3.4.1
#
DISCID=fd0b8114
DTITLE=PATSY CLINE - THE GREAT PATSY CLINE
DYEAR=1900
DGENRE=
TTITLE0=WALKIN AFTER MIDNIGHT
TTITLE1=JUST OUT OF REACH
TTITLE2=THREE CIGARETTES IN AN ASHTRY
TTITLE3=A CHURCH
TTITLE4=HONKY TONK MERRY GO ROUND
TTITLE5=I CANT FORGET
TTITLE6=TODAY TOMORROW
TTITLE7=I CRIED ALL THE WAY
TTITLE8=LIFES RAILWAY TO HEAVEN
TTITLE9=TURN THE CARDS SLOWLY
TTITLE10=STOP LOOK AND LISTEN
TTITLE11=LET THE TEARDROPS FALL
TTITLE12=IVE LOVED AND LOST AGAIN
TTITLE13=I CAN SEE AN ANGEL
TTITLE14=FINGERPRINTS
TTITLE15=TRY AGAIN
TTITLE16=TOO MANY SECRETS
TTITLE17=NEVER NO MORE
TTITLE18=HE WILL
TTITLE19=STOP THE WORLD
EXTD=
EXTT0=
EXTT1=
EXTT2=
EXTT3=
EXTT4=
EXTT5=
EXTT6=
EXTT7=
EXTT8=
EXTT9=
EXTT10=
EXTT11=
EXTT12=
EXTT13=
EXTT14=
EXTT15=
EXTT16=
EXTT17=
EXTT18=
EXTT19=
PLAYORDER=
